<mxfile host="app.diagrams.net" modified="2023-06-09T13:52:35.253Z" agent="Mozilla/5.0 (Windows NT 10.0; Win64; x64) AppleWebKit/537.36 (KHTML, like Gecko) Chrome/114.0.0.0 Safari/537.36" etag="iCBQJ5dE1NCVTAk7HIzg" version="21.3.7" type="device">
  <diagram name="Page-1" id="gKYj1MVIpRbeUMEiV3a2">
    <mxGraphModel dx="268" dy="482" grid="1" gridSize="10" guides="1" tooltips="1" connect="1" arrows="1" fold="1" page="1" pageScale="1" pageWidth="850" pageHeight="1100" math="0" shadow="0">
      <root>
        <mxCell id="0" />
        <mxCell id="1" parent="0" />
        <mxCell id="73kYlA_mnQqIEBr_NlbU-1" value="" style="rounded=0;whiteSpace=wrap;html=1;" vertex="1" parent="1">
          <mxGeometry x="190" y="100" width="500" height="280" as="geometry" />
        </mxCell>
        <mxCell id="73kYlA_mnQqIEBr_NlbU-16" style="edgeStyle=orthogonalEdgeStyle;rounded=0;orthogonalLoop=1;jettySize=auto;html=1;exitX=0;exitY=0;exitDx=0;exitDy=0;entryX=0.994;entryY=0.567;entryDx=0;entryDy=0;entryPerimeter=0;startArrow=none;startFill=0;endArrow=oval;endFill=1;" edge="1" parent="1" source="73kYlA_mnQqIEBr_NlbU-2" target="73kYlA_mnQqIEBr_NlbU-15">
          <mxGeometry relative="1" as="geometry" />
        </mxCell>
        <mxCell id="73kYlA_mnQqIEBr_NlbU-22" style="edgeStyle=orthogonalEdgeStyle;rounded=0;orthogonalLoop=1;jettySize=auto;html=1;exitX=0;exitY=0.5;exitDx=0;exitDy=0;entryX=1.031;entryY=0.58;entryDx=0;entryDy=0;entryPerimeter=0;endArrow=oval;endFill=1;" edge="1" parent="1" source="73kYlA_mnQqIEBr_NlbU-2" target="73kYlA_mnQqIEBr_NlbU-20">
          <mxGeometry relative="1" as="geometry" />
        </mxCell>
        <mxCell id="73kYlA_mnQqIEBr_NlbU-23" style="edgeStyle=orthogonalEdgeStyle;rounded=0;orthogonalLoop=1;jettySize=auto;html=1;exitX=0;exitY=0.75;exitDx=0;exitDy=0;endArrow=oval;endFill=1;entryX=1.04;entryY=0.46;entryDx=0;entryDy=0;entryPerimeter=0;" edge="1" parent="1" source="73kYlA_mnQqIEBr_NlbU-2" target="73kYlA_mnQqIEBr_NlbU-24">
          <mxGeometry relative="1" as="geometry">
            <mxPoint x="120" y="180" as="targetPoint" />
          </mxGeometry>
        </mxCell>
        <mxCell id="73kYlA_mnQqIEBr_NlbU-25" value="Line bus of data" style="edgeStyle=orthogonalEdgeStyle;rounded=0;orthogonalLoop=1;jettySize=auto;html=1;exitX=1;exitY=0.25;exitDx=0;exitDy=0;entryX=0;entryY=0.25;entryDx=0;entryDy=0;" edge="1" parent="1" source="73kYlA_mnQqIEBr_NlbU-2" target="73kYlA_mnQqIEBr_NlbU-3">
          <mxGeometry relative="1" as="geometry" />
        </mxCell>
        <mxCell id="73kYlA_mnQqIEBr_NlbU-26" value="Control buss" style="edgeStyle=orthogonalEdgeStyle;rounded=0;orthogonalLoop=1;jettySize=auto;html=1;exitX=1;exitY=0.75;exitDx=0;exitDy=0;entryX=0;entryY=0.75;entryDx=0;entryDy=0;" edge="1" parent="1" source="73kYlA_mnQqIEBr_NlbU-2" target="73kYlA_mnQqIEBr_NlbU-3">
          <mxGeometry relative="1" as="geometry" />
        </mxCell>
        <mxCell id="73kYlA_mnQqIEBr_NlbU-2" value="Data collection" style="whiteSpace=wrap;html=1;aspect=fixed;" vertex="1" parent="1">
          <mxGeometry x="210" y="130" width="80" height="80" as="geometry" />
        </mxCell>
        <mxCell id="73kYlA_mnQqIEBr_NlbU-27" value="Data" style="edgeStyle=orthogonalEdgeStyle;rounded=0;orthogonalLoop=1;jettySize=auto;html=1;exitX=1;exitY=0.25;exitDx=0;exitDy=0;entryX=0;entryY=0.25;entryDx=0;entryDy=0;" edge="1" parent="1" source="73kYlA_mnQqIEBr_NlbU-3" target="73kYlA_mnQqIEBr_NlbU-4">
          <mxGeometry relative="1" as="geometry" />
        </mxCell>
        <mxCell id="73kYlA_mnQqIEBr_NlbU-28" value="Control Buss" style="edgeStyle=orthogonalEdgeStyle;rounded=0;orthogonalLoop=1;jettySize=auto;html=1;exitX=1;exitY=0.75;exitDx=0;exitDy=0;entryX=0;entryY=0.75;entryDx=0;entryDy=0;" edge="1" parent="1" source="73kYlA_mnQqIEBr_NlbU-3" target="73kYlA_mnQqIEBr_NlbU-4">
          <mxGeometry relative="1" as="geometry" />
        </mxCell>
        <mxCell id="73kYlA_mnQqIEBr_NlbU-3" value="Microproccecor and Memory" style="whiteSpace=wrap;html=1;aspect=fixed;" vertex="1" parent="1">
          <mxGeometry x="400" y="130" width="80" height="80" as="geometry" />
        </mxCell>
        <mxCell id="73kYlA_mnQqIEBr_NlbU-29" style="edgeStyle=orthogonalEdgeStyle;rounded=0;orthogonalLoop=1;jettySize=auto;html=1;exitX=1;exitY=0.25;exitDx=0;exitDy=0;entryX=0.007;entryY=0.54;entryDx=0;entryDy=0;entryPerimeter=0;" edge="1" parent="1" source="73kYlA_mnQqIEBr_NlbU-4" target="73kYlA_mnQqIEBr_NlbU-30">
          <mxGeometry relative="1" as="geometry">
            <mxPoint x="730" y="130" as="targetPoint" />
          </mxGeometry>
        </mxCell>
        <mxCell id="73kYlA_mnQqIEBr_NlbU-31" style="edgeStyle=orthogonalEdgeStyle;rounded=0;orthogonalLoop=1;jettySize=auto;html=1;exitX=1;exitY=0.5;exitDx=0;exitDy=0;entryX=-0.029;entryY=0.473;entryDx=0;entryDy=0;entryPerimeter=0;" edge="1" parent="1" source="73kYlA_mnQqIEBr_NlbU-4" target="73kYlA_mnQqIEBr_NlbU-32">
          <mxGeometry relative="1" as="geometry">
            <mxPoint x="750" y="150" as="targetPoint" />
          </mxGeometry>
        </mxCell>
        <mxCell id="73kYlA_mnQqIEBr_NlbU-35" style="edgeStyle=orthogonalEdgeStyle;rounded=0;orthogonalLoop=1;jettySize=auto;html=1;exitX=1;exitY=0.75;exitDx=0;exitDy=0;entryX=0.004;entryY=0.14;entryDx=0;entryDy=0;entryPerimeter=0;" edge="1" parent="1" source="73kYlA_mnQqIEBr_NlbU-4" target="73kYlA_mnQqIEBr_NlbU-34">
          <mxGeometry relative="1" as="geometry" />
        </mxCell>
        <mxCell id="73kYlA_mnQqIEBr_NlbU-37" style="edgeStyle=orthogonalEdgeStyle;rounded=0;orthogonalLoop=1;jettySize=auto;html=1;exitX=1;exitY=1;exitDx=0;exitDy=0;entryX=0.006;entryY=0.447;entryDx=0;entryDy=0;entryPerimeter=0;" edge="1" parent="1" source="73kYlA_mnQqIEBr_NlbU-4" target="73kYlA_mnQqIEBr_NlbU-36">
          <mxGeometry relative="1" as="geometry">
            <Array as="points">
              <mxPoint x="700" y="210" />
              <mxPoint x="700" y="203" />
            </Array>
          </mxGeometry>
        </mxCell>
        <mxCell id="73kYlA_mnQqIEBr_NlbU-4" value="&lt;font style=&quot;font-size: 11px;&quot;&gt;Display&lt;br&gt;(sound or screen)&lt;/font&gt;" style="whiteSpace=wrap;html=1;aspect=fixed;" vertex="1" parent="1">
          <mxGeometry x="580" y="130" width="80" height="80" as="geometry" />
        </mxCell>
        <mxCell id="73kYlA_mnQqIEBr_NlbU-7" style="edgeStyle=orthogonalEdgeStyle;rounded=0;orthogonalLoop=1;jettySize=auto;html=1;exitX=0.75;exitY=0;exitDx=0;exitDy=0;entryX=0.5;entryY=1;entryDx=0;entryDy=0;" edge="1" parent="1" source="73kYlA_mnQqIEBr_NlbU-6" target="73kYlA_mnQqIEBr_NlbU-4">
          <mxGeometry relative="1" as="geometry" />
        </mxCell>
        <mxCell id="73kYlA_mnQqIEBr_NlbU-8" style="edgeStyle=orthogonalEdgeStyle;rounded=0;orthogonalLoop=1;jettySize=auto;html=1;exitX=0.5;exitY=0;exitDx=0;exitDy=0;entryX=0.5;entryY=1;entryDx=0;entryDy=0;" edge="1" parent="1" source="73kYlA_mnQqIEBr_NlbU-6" target="73kYlA_mnQqIEBr_NlbU-3">
          <mxGeometry relative="1" as="geometry" />
        </mxCell>
        <mxCell id="73kYlA_mnQqIEBr_NlbU-9" style="edgeStyle=orthogonalEdgeStyle;rounded=0;orthogonalLoop=1;jettySize=auto;html=1;exitX=0.25;exitY=0;exitDx=0;exitDy=0;entryX=0.5;entryY=1;entryDx=0;entryDy=0;" edge="1" parent="1" source="73kYlA_mnQqIEBr_NlbU-6" target="73kYlA_mnQqIEBr_NlbU-2">
          <mxGeometry relative="1" as="geometry" />
        </mxCell>
        <mxCell id="73kYlA_mnQqIEBr_NlbU-11" style="edgeStyle=orthogonalEdgeStyle;rounded=0;orthogonalLoop=1;jettySize=auto;html=1;exitX=0.5;exitY=1;exitDx=0;exitDy=0;entryX=0.514;entryY=0.073;entryDx=0;entryDy=0;entryPerimeter=0;endArrow=oval;endFill=1;" edge="1" parent="1" source="73kYlA_mnQqIEBr_NlbU-6" target="73kYlA_mnQqIEBr_NlbU-13">
          <mxGeometry relative="1" as="geometry">
            <mxPoint x="425" y="400" as="targetPoint" />
            <Array as="points">
              <mxPoint x="425" y="375" />
              <mxPoint x="426" y="375" />
            </Array>
          </mxGeometry>
        </mxCell>
        <mxCell id="73kYlA_mnQqIEBr_NlbU-6" value="Battery (Power Supplier" style="rounded=0;whiteSpace=wrap;html=1;" vertex="1" parent="1">
          <mxGeometry x="365" y="290" width="120" height="60" as="geometry" />
        </mxCell>
        <mxCell id="73kYlA_mnQqIEBr_NlbU-13" value="Charger" style="text;html=1;align=center;verticalAlign=middle;resizable=0;points=[];autosize=1;strokeColor=none;fillColor=none;" vertex="1" parent="1">
          <mxGeometry x="390" y="410" width="70" height="30" as="geometry" />
        </mxCell>
        <mxCell id="73kYlA_mnQqIEBr_NlbU-15" value="&lt;font style=&quot;font-size: 10px;&quot;&gt;Tempreture&lt;/font&gt;" style="text;html=1;align=center;verticalAlign=middle;resizable=0;points=[];autosize=1;strokeColor=none;fillColor=none;" vertex="1" parent="1">
          <mxGeometry x="50" y="90" width="70" height="30" as="geometry" />
        </mxCell>
        <mxCell id="73kYlA_mnQqIEBr_NlbU-17" value="&lt;font style=&quot;font-size: 10px;&quot;&gt;Heart Beams&lt;/font&gt;" style="text;html=1;align=center;verticalAlign=middle;resizable=0;points=[];autosize=1;strokeColor=none;fillColor=none;" vertex="1" parent="1">
          <mxGeometry x="45" y="110" width="80" height="30" as="geometry" />
        </mxCell>
        <mxCell id="73kYlA_mnQqIEBr_NlbU-20" value="&lt;font style=&quot;font-size: 10px;&quot;&gt;Time / Date&lt;/font&gt;" style="text;html=1;align=center;verticalAlign=middle;resizable=0;points=[];autosize=1;strokeColor=none;fillColor=none;" vertex="1" parent="1">
          <mxGeometry x="45" y="138" width="70" height="30" as="geometry" />
        </mxCell>
        <mxCell id="73kYlA_mnQqIEBr_NlbU-18" style="edgeStyle=orthogonalEdgeStyle;rounded=0;orthogonalLoop=1;jettySize=auto;html=1;exitX=0;exitY=0.25;exitDx=0;exitDy=0;entryX=1.015;entryY=0.58;entryDx=0;entryDy=0;entryPerimeter=0;endArrow=oval;endFill=1;" edge="1" parent="1" source="73kYlA_mnQqIEBr_NlbU-2" target="73kYlA_mnQqIEBr_NlbU-17">
          <mxGeometry relative="1" as="geometry" />
        </mxCell>
        <mxCell id="73kYlA_mnQqIEBr_NlbU-24" value="Motion" style="text;html=1;align=center;verticalAlign=middle;resizable=0;points=[];autosize=1;strokeColor=none;fillColor=none;" vertex="1" parent="1">
          <mxGeometry x="50" y="168" width="60" height="30" as="geometry" />
        </mxCell>
        <mxCell id="73kYlA_mnQqIEBr_NlbU-30" value="Watch" style="text;html=1;align=center;verticalAlign=middle;resizable=0;points=[];autosize=1;strokeColor=none;fillColor=none;" vertex="1" parent="1">
          <mxGeometry x="730" y="108" width="60" height="30" as="geometry" />
        </mxCell>
        <mxCell id="73kYlA_mnQqIEBr_NlbU-32" value="&lt;font style=&quot;font-size: 10px;&quot;&gt;Body Temp&lt;/font&gt;" style="text;html=1;align=center;verticalAlign=middle;resizable=0;points=[];autosize=1;strokeColor=none;fillColor=none;" vertex="1" parent="1">
          <mxGeometry x="740" y="130" width="70" height="30" as="geometry" />
        </mxCell>
        <mxCell id="73kYlA_mnQqIEBr_NlbU-34" value="&lt;font style=&quot;font-size: 10px;&quot;&gt;Calories and Steps&lt;/font&gt;" style="text;html=1;align=center;verticalAlign=middle;resizable=0;points=[];autosize=1;strokeColor=none;fillColor=none;" vertex="1" parent="1">
          <mxGeometry x="730" y="160" width="110" height="30" as="geometry" />
        </mxCell>
        <mxCell id="73kYlA_mnQqIEBr_NlbU-36" value="&lt;font style=&quot;font-size: 10px;&quot;&gt;Heart Rate&lt;/font&gt;" style="text;html=1;align=center;verticalAlign=middle;resizable=0;points=[];autosize=1;strokeColor=none;fillColor=none;" vertex="1" parent="1">
          <mxGeometry x="740" y="190" width="70" height="30" as="geometry" />
        </mxCell>
        <mxCell id="73kYlA_mnQqIEBr_NlbU-39" value="Input arrow" style="endArrow=oval;html=1;rounded=0;fontSize=9;endFill=1;" edge="1" parent="1">
          <mxGeometry width="50" height="50" relative="1" as="geometry">
            <mxPoint x="220" y="310" as="sourcePoint" />
            <mxPoint x="290" y="310" as="targetPoint" />
          </mxGeometry>
        </mxCell>
        <mxCell id="73kYlA_mnQqIEBr_NlbU-40" value="&lt;font style=&quot;font-size: 9px;&quot;&gt;Output arrow&lt;/font&gt;" style="endArrow=classic;html=1;rounded=0;" edge="1" parent="1">
          <mxGeometry width="50" height="50" relative="1" as="geometry">
            <mxPoint x="220" y="340" as="sourcePoint" />
            <mxPoint x="300" y="340" as="targetPoint" />
          </mxGeometry>
        </mxCell>
        <mxCell id="73kYlA_mnQqIEBr_NlbU-43" value="&lt;h2&gt;Smart Watch&lt;/h2&gt;" style="text;html=1;align=center;verticalAlign=middle;resizable=0;points=[];autosize=1;strokeColor=none;fillColor=none;" vertex="1" parent="1">
          <mxGeometry x="360" y="45" width="130" height="60" as="geometry" />
        </mxCell>
      </root>
    </mxGraphModel>
  </diagram>
</mxfile>
